# xmcd
#
# Track frame offsets: 
#        150
#        13030
#        24027
#        34369
#        43871
#        57662
#        69168
#        85431
#        94970
#        108878
#        120742
#        135324
#        146967
#        158333
#
# Disc length: 2263 seconds
#
# Revision: 0
# Processed by: cddbd v1.5.2PL0 Copyright (c) Steve Scherf et al.
# Submitted via: ExactAudioCopy v1.0b4
#
DISCID=b808d50e
DTITLE=Boogie Phil - On The Record
DYEAR=2014
DGENRE=Blues
TTITLE0=Scream For More
TTITLE1=Switching Moods
TTITLE2=Twee Motten Boogie
TTITLE3=She's On The Ball
TTITLE4=Blue Jean Shuffle
TTITLE5=Quel Temps Fait-il À Paris
TTITLE6=The Boodie Green
TTITLE7=Rhythm Boogie
TTITLE8=The Flintstones
TTITLE9=The Dance Of The Cuckoos
TTITLE10=Going Down Slow
TTITLE11=Mosquito Dance
TTITLE12=Les Copains d'Abord
TTITLE13=Let's Boogie Some Woogie
EXTD=
EXTT0=
EXTT1=
EXTT2=
EXTT3=
EXTT4=
EXTT5=
EXTT6=
EXTT7=
EXTT8=
EXTT9=
EXTT10=
EXTT11=
EXTT12=
EXTT13=
PLAYORDER=
